<svg id="Layer_1" xmlns="http://www.w3.org/2000/svg" viewBox="0 0 70 70"><style>.st0{fill:none}</style><path class="st0" d="M0 0h70v70H0V0z"/><path d="M58.3 23.3h-8.2c-1.3-2.3-3.1-4.2-5.3-5.7l4.7-4.7-4.1-4.1-6.3 6.3c-1.3-.3-2.7-.5-4.1-.5s-2.8.2-4.1.5l-6.3-6.3-4.1 4.1 4.7 4.7c-2.2 1.5-4 3.4-5.3 5.7h-8.2v5.8h6.1c-.2.9-.3 1.9-.3 2.9v3h-5.8v5.8h5.8v2.9c0 1 .1 2 .3 2.9h-6.1v5.8h8.2c3 5.2 8.7 8.8 15.1 8.8s12.1-3.5 15.1-8.8h8.2v-5.8h-6.1c.2-.9.3-1.9.3-2.9v-2.9h5.8V35h-5.8v-2.9c0-1-.1-2-.3-2.9h6.1v-5.9zM40.8 46.7H29.2v-5.8h11.7v5.8zm0-11.7H29.2v-5.8h11.7V35z"/></svg>