<svg id="Layer_1" xmlns="http://www.w3.org/2000/svg" viewBox="0 0 43.2 38.4"><style>.st0{fill:#510923}.st1{fill:#eaeaea}.st2{fill:#3a3a3a}.st3{fill:#515151}.st4{opacity:.3;enable-background:new}.st5{fill:#d30e42}.st6{opacity:.5;enable-background:new}.st7{fill:#040705}.st8{fill:none;stroke:#000;stroke-width:5.4791;stroke-miterlimit:10}</style><title>cartridge-logo</title><path class="st0" d="M24.6 7.7v6.6l-6 3.4-6-3.4z"/><path class="st1" d="M23.8 8.8l-11.2 6.3 12 6.6 11.2-6.2z"/><path class="st2" d="M42.5 24.3l-6-3.3 6-3.3z"/><path class="st3" d="M24.9 33.3L42 23.9l-4.9-2.6-12.5 7z"/><path class="st4" d="M24.4 29.7l3 1.7 12-6.7-3.1-1.7-11.9 6.7"/><path class="st0" d="M27.5 30.6L24.4 29v-2.9l3 1.8z"/><path class="st5" d="M27.4 27.9v2.7l12-6.7v-2.7z"/><path class="st5" d="M24.4 26.1l3 1.8 12-6.7-3.1-1.7-11.9 6.6"/><path class="st4" d="M24.4 26.1l3 1.8 12-6.7-3.1-1.7-11.9 6.6"/><path class="st6" d="M27.5 30.6L24.4 29v-2.9l3 1.8z"/><path class="st7" d="M28.7 28.4l.1.4 9.7-5.4V23z"/><path class="st0" d="M.6 14.3V21l24 13.4v-6.7z"/><path class="st0" d="M41.8 19v4.9L25.3 33v-4.9L41.8 19m.8-1.3l-18 10v6.7l18-10v-6.7z"/><path class="st0" d="M18.6 4.5l5.5 3.1-11.6 6.5-.4.2.4.2 12 6.7.1.1.1-.1 11.8-6.6 5.8 3.2v6.4l-17.7 9.9L.8 20.9v-6.4l17.8-10m0-.2l-18 10V21l24 13.4 18-10v-6.7l-6-3.3-12 6.7-12-6.7 12-6.7-6-3.4z"/><path class="st5" d="M.6 14.3l18-10 6 3.4-12 6.6 12 6.7 11.9-6.7 6 3.4-17.9 10.1z"/><path class="st5" d="M18.8 15.3l-.3-.2 6.4-3.6.4.2zM20.3 16.1l-.4-.2 6.5-3.5.4.2zM21.8 17l-.4-.3 6.6-3.5.4.2z"/></svg>