<svg xmlns="http://www.w3.org/2000/svg" width="183" height="47" viewBox="0 0 183 47"><g fill="none"><path fill="#FFF" d="M79.694 27.896h7.674v2.555H76.742V14.923h10.626v2.556h-7.674m17.512 6.681h-4.92v6.488h-2.95v-15.53H99.96v15.53h-2.754V24.16zm-4.722-6.29v3.736h4.92V17.87h-4.92zm9.642 12.778v-15.53h10.626v9.043h-3.542l3.738 6.488h-2.95l-3.74-6.487h-.984v6.488h-3.148zm2.95-12.974v3.735h4.92v-3.736h-4.92zm13.776.196h-3.936v-2.555h10.626v2.556h-3.74V30.65h-2.95m8.658-.002v-15.53h10.625v9.043h-3.738l3.738 6.488h-2.754l-3.935-6.487h-.984v6.488h-2.95zm2.755-12.974v3.735h4.92v-3.736h-4.92zm13.38 12.974h-2.95v-15.53h2.95m2.165 15.53v-15.53h9.445l1.18 1.377v12.777l-1.18 1.376h-9.445zm7.87-12.974h-4.92v10.222h4.92V17.674zm9.643 3.932h5.903v9.042H158.6v-15.53h10.626v2.556h-7.674v10.222h4.92V24.16h-3.15m11.02-6.29v3.736h7.674v2.555h-7.674v3.736h7.674v2.555H171.39V14.923h10.626v2.556"/><path fill="#510923" d="M37.977 5.094v10.418l-9.248 5.11-9.25-5.11"/><path fill="#EAEAEA" d="M36.797 7.06L19.48 16.69l18.497 10.223 17.317-9.632"/><path fill="#3A3A3A" d="M65.723 31.04l-9.25-5.306 9.25-5.11"/><path fill="#515151" d="M38.568 44.998L65.132 30.45l-7.674-4.127-19.284 10.812"/><path fill="#000" opacity=".3" d="M37.78 39.297l4.526 2.556L61 31.63l-4.723-2.75L37.78 39.296"/><path fill="#510923" d="M42.503 40.673l-4.722-2.555v-4.325l4.526 2.752"/><path fill="#D30E42" d="M42.306 36.545v4.128L61 30.45v-4.323"/><path fill="#D30E42" d="M37.78 33.793l4.526 2.752L61 26.127l-4.723-2.752L37.78 33.793"/><path fill="#000" opacity=".3" d="M37.78 33.793l4.526 2.752L61 26.127l-4.723-2.752L37.78 33.793"/><path fill="#000" opacity=".5" d="M42.503 40.673l-4.722-2.555v-4.325l4.526 2.752"/><path fill="#040705" d="M44.47 37.33v.59l15.153-8.45v-.59"/><path fill="#510923" d="M.787 15.512v10.222l37.19 20.836V36.152M64.74 22.785v7.47L39.157 44.408v-7.47l25.58-14.153zm1.18-2.162l-27.943 15.53v10.22L65.92 30.846V20.623z"/><path fill="#510923" d="M28.73.376l8.46 4.718L19.284 15.12l-.59.392.59.393L37.78 26.127l.197.196.197-.196 18.3-10.222 9.052 4.914v10.025l-27.55 15.332L1.182 25.734V15.71L28.73.375zm0-.393L.786 15.513v10.22l37.19 20.837L65.92 31.04V20.624l-9.446-5.11-18.497 10.22-18.496-10.22L37.978 5.29 28.73-.017z"/><path fill="#D30E42" d="M.787 15.512L28.73-.018l9.247 5.112L19.48 15.512l18.497 10.222 18.497-10.222 9.25 5.11-27.55 15.727"/><path fill="#D30E42" d="M29.123 17.085l-.59-.394 10.035-5.503.59.197m-7.674 6.879l-.787-.393 10.232-5.503.59.393m-7.871 6.879l-.59-.393 10.232-5.504.59.196"/></g></svg>