<svg id="Capa_1" xmlns="http://www.w3.org/2000/svg" viewBox="0 0 70 70"><style>.st0{fill:#262324}</style><path class="st0" d="M24.3 48.8L23.1 50c-.5.5-.5 1.4 0 1.9.2.3.5.3.9.3.3 0 .7 0 1-.3l1.2-1.2c.5-.5.5-1.4 0-1.9s-1.3-.3-1.9 0zm-3-9.9h-1.7c-.7 0-1.4.5-1.4 1.4 0 .9.5 1.4 1.4 1.4h1.7c.7 0 1.4-.5 1.4-1.4-.1-.9-.8-1.4-1.4-1.4zM35 27.5c.7 0 1.4-.5 1.4-1.4v-1.7c0-.7-.5-1.4-1.4-1.4s-1.4.5-1.4 1.4v1.7c0 .9.7 1.4 1.4 1.4zm-10 .7c-.5-.5-1.4-.5-1.9 0s-.5 1.4 0 1.9l1.2 1.2c.2.2.5.3.9.3s.7-.2.9-.3c.5-.5.5-1.4 0-1.9L25 28.2zm16 4l-5.7 5.5c-.9-.2-1.7 0-2.4.5-1 1-1 2.6 0 3.6s2.6 1 3.6 0c.7-.7.9-1.5.7-2.4l5.7-5.5c.5-.5.5-1.4 0-1.9-.5-.4-1.4-.4-1.9.2zm-4.6-12.8v-1c1.9-.5 3.4-2.4 3.4-4.5-.2-2.4-2.2-4.6-4.8-4.6s-4.6 2.1-4.6 4.6c0 2.1 1.4 4 3.4 4.5v1c-10.8.7-19.4 9.7-19.4 20.5 0 11.3 9.3 20.6 20.6 20.6s20.6-9.3 20.6-20.6c0-10.8-8.6-19.8-19.2-20.5zm-3.5-5.3c0-1.2.9-2.1 2.1-2.1s2.1.9 2.1 2.1c0 1-.9 2.1-2.1 2.1s-2.1-1.1-2.1-2.1zM35 57.9c-10 0-18-8.1-18-18S25 22 35 22s18 8.1 18 18-8 17.9-18 17.9zm0-5.3c-.7 0-1.4.5-1.4 1.4v1.7c0 .7.5 1.4 1.4 1.4s1.4-.5 1.4-1.4V54c0-.9-.7-1.4-1.4-1.4zm15.5-13.7h-1.7c-.7 0-1.4.5-1.4 1.4 0 .9.5 1.4 1.4 1.4h1.7c.7 0 1.4-.5 1.4-1.4-.1-.9-.7-1.4-1.4-1.4zM45 28.2l-1.2 1.2c-.5.5-.5 1.4 0 1.9.2.2.5.3.9.3.3 0 .7-.2.9-.3l1.2-1.2c.5-.5.5-1.4 0-1.9s-1.3-.5-1.8 0zm.7 20.6c-.5-.5-1.4-.5-1.9 0s-.5 1.4 0 1.9l1.2 1.2c.3.3.7.3 1 .3.3 0 .7-.2.9-.3.5-.5.5-1.4 0-1.9l-1.2-1.2z"/></svg>