<svg
  xmlns="http://www.w3.org/2000/svg"
  viewBox="0 0 587.34 409.19"
>
  <title>{appTitle}</title>
  <path
    d="M372.08,409.19H353.52c-3.67-.94-7.3-2.13-11-2.77-7.92-1.37-15.89-2.45-24.18-3.69,2.48-4.19,4.29-7.8,6.62-11,1.77-2.45,3.87-5,6.43-6.43s2.71-3,2.21-5.5c-3.1-15.54-11.31-28-23.34-37.86-9.54-7.84-19.43-15.29-29.44-22.51-4-2.91-4.9-6.22-4-10.67,1.57-7.86,2.94-15.76,4.53-23.61,1.77-8.75,1.82-8.68-6.63-12.3-16.8-7.2-34.48-12.87-47.22-27.83-6,16.38-8.82,32.57-5.18,49.44,3.24,15,11.69,27.33,20.28,39.67,8.44,12.14,16.79,24.41,24.16,37.21,3.73,6.47,5.21,14.23,8.12,22.6-8,1.24-14.6,2.53-21.26,3.2-3.49.35-5.41-1.51-5.48-5.59-0.29-16.88-6.11-32.08-17.43-44.28a532.68,532.68,0,0,0-38.81-37.11c-6.32-5.56-9.32-10.55-6.89-19.25,1.84-6.61,1.62-13.44-3.34-20.05-19.12-25.49-30.59-54.09-32.48-86.18-0.34-5.75-.67-11.5-1-17.46-6.17,2-10.06,5.72-11,11.75a52.62,52.62,0,0,0-.66,13.8c1.75,14.58-1.27,28.57-4.34,42.6-3.93,17.93-8.6,35.78-7.8,54.34,0.28,6.63,1.48,13.22,2.32,20.33-11.51-10-14.22-23.21-15.67-37.5-1.83,1.48-3.16,2.49-4.42,3.59-15,13.14-29.66,26.67-45,39.33a112,112,0,0,1-45.24,22.29l13.3-14.23a102,102,0,0,0-10.37-1.09c-6.42,0-12.85.31-19.28,0.5v-2.78c13.34-7.64,26.59-15.4,36.84-27.41-7.21-4.28-17.24-.17-23.3-9.37,20.94,2.91,35.49-6.24,47.56-21a150.87,150.87,0,0,1,10.64-11c1.41-1.4,3.72-2.79,1.37-4.68-1-.83-3.74-0.53-5.13.26-2.93,1.66-5.39,4.13-8.23,6S54,255,51.37,251.53a53.57,53.57,0,0,0,18.95-23.46c3.62-8.81,6.63-17.89,9.41-27,4.85-15.89,8.64-32.14,14.13-47.8,5.29-15.09,14.77-27.12,31.06-31.94,11.26-3.33,22.36-3.75,33.39,1.41,9.63,4.5,19,5.42,26.43-4.42a6.64,6.64,0,0,1,.68-0.63C203,100.18,224.7,95,248.48,98.27c14.91,2.07,29.59,5.82,44.33,9,13.41,2.88,26.7,6.69,40.66,4.13A40,40,0,0,0,354.6,100.8c-1.61-.25-2.47-0.16-3-0.53A42.8,42.8,0,0,1,348,97.47c1.18-.68,2.28-1.69,3.55-2a69.61,69.61,0,0,0,32.09-16.69c9.9-9.09,19.27-18.75,29-28,8-7.62,17-13.91,27.84-16.82,3.83-1,7.8-1.55,11.9-2.34,0.15-2.36-.16-4.8.58-6.88a7.55,7.55,0,0,1,3.81-4c0.95-.4,2.75,1.11,4.11,1.86,3.71,2,7.18,5.24,11.12,6,7.2,1.31,14.67,1.17,21.26,1.58,2.77-5.76,4.85-10.74,7.5-15.38C503.7,9.68,507.13,4.9,510.33,0h2.78c0,3.4.15,6.81-.08,10.19-0.19,2.82.79,4,3.58,4.75,4.48,1.16,8.81,2.91,14.05,4.7L539,4.2c3.67,2.46-.8,8.82,5.71,8.07a16.64,16.64,0,0,1-.32,1.85c-6.46,20-3.29,37.36,13.5,51.22a3.81,3.81,0,0,1,1.16,3c-2.1,12.38-.07,24.23,6.37,34.76,6.66,10.88,14.55,21,21.9,31.45v9.28c-2.87,6.06-5,12.65-8.8,18.06-5.42,7.72-13.94,8.71-22.88,8-7.19-.61-10.57-4.26-13.14-11-3.35-8.75-11.94-12.45-20.13-15.95-10.25-4.38-20.48-8.81-31.07-13.37-5.86,11.76-11.87,24.61-18.63,37-2.86,5.26-3.76,10.08-2.16,15.75a147.5,147.5,0,0,1,3.23,14.9c1.95,11.27,3.79,22.61.78,34-1.17,4.43-4.38,8.71-4.26,13,0.13,4.48,3.47,8.78,4.83,13.32,3.27,10.91,6,22,9.32,32.87,2.74,9,7,17.06,14.43,23.29a8.55,8.55,0,0,1,2.8,5.66c0.17,9.47-2,18.44-7.86,26.08-3.74,4.9-7.92,9.47-12.08,14-5.87,6.43-11.27,13.12-13.9,21.61-0.53,1.7-1,3.42-1.41,4.93-11.37,0-22.2.34-33-.11-8.21-.34-15.6-2.86-18.36-13.45-2.11,5.92-3.69,10.73-5.58,15.4-0.55,1.36-1.87,3.22-3,3.39C392.84,393.18,382.46,401.17,372.08,409.19Zm26.82-95.75a102.3,102.3,0,0,0,7.3,39.28c4.09,10.45,4.08,10.46,14.79,7.23,7.89-2.38,15.85-3.5,23.25,1.06,3.22,2,5.46,1.95,8.09-.52,1.57-1.47,3.44-2.61,5.09-4,10.21-8.64,15.91-19.5,15.86-33,0-1.4-.73-3.41-1.8-4.11-9.24-6.1-18.69-11.87-28-17.93-6.37-4.16-12.79-8.14-20.63-8.65A27.62,27.62,0,0,0,401,300.94C398.58,303.41,399.51,309.17,398.9,313.44Zm-61.41-13.55c-2.89-.28-4.81-0.19-6.56-0.7s-3.55-1.86-5.44-2.44c-5.67-1.75-7.73-.23-8.15,5.57-0.82,11.27,1.88,21.62,9.2,30.22,6.09,7.16,12.83,13.79,19.57,20.37,9.39,9.17,17.72,18.94,20.42,31.48,3.88-1,7.5-2.16,11.2-2.94,5.33-1.12,5.47-1.29,3.86-6.67-3.29-10.94-9.07-20.55-15.67-29.73C355.22,330.19,342.94,316.34,337.49,299.89Z" />
</svg>