<svg id="Layer_1" xmlns="http://www.w3.org/2000/svg" viewBox="0 0 111.4 38.4"><style>.st0{fill:#fff}.st1{fill:#510923}.st2{fill:#eaeaea}.st3{fill:#3a3a3a}.st4{fill:#515151}.st5{opacity:.3;enable-background:new}.st6{fill:#d30e42}.st7{opacity:.5;enable-background:new}.st8{fill:#040705}.st9{fill:none;stroke:#000;stroke-width:7;stroke-miterlimit:10}</style><title>cartridge-logo</title><path class="st0" d="M59.4 23.9h3.9v1.3h-5.4v-7.9h5.4v1.3h-3.9v5.3zM68.3 22h-2.5v3.3h-1.5v-7.9h5.4v7.9h-1.4V22zm-2.4-3.2v1.9h2.5v-1.9h-2.5zM70.8 25.3v-7.9h5.4V22h-1.8l1.9 3.3h-1.5L72.9 22h-.5v3.3h-1.6zm1.5-6.6v1.9h2.5v-1.9h-2.5zM79.3 18.8h-2v-1.3h5.4v1.3h-1.9v6.5h-1.5v-6.5zM83.7 25.3v-7.9h5.4V22h-1.9l1.9 3.3h-1.4l-2-3.3h-.5v3.3h-1.5zm1.5-6.6v1.9h2.5v-1.9h-2.5zM91.9 25.3h-1.5v-7.9h1.5v7.9zM93 25.3v-7.9h4.8l.6.7v6.5l-.6.7H93zm4-6.6h-2.5v5.2H97v-5.2zM101.9 20.7h3v4.6h-5.4v-7.9h5.4v1.3H101v5.2h2.5V22h-1.6v-1.3zM107.5 18.8v1.9h3.9V22h-3.9v1.9h3.9v1.3H106v-7.9h5.4v1.3l-3.9.2z"/><path class="st1" d="M30.6 4.3v8.5L23 17.1l-7.7-4.3z"/><path class="st2" d="M29.6 5.8l-14.3 8 15.3 8.5 14.3-8z"/><path class="st3" d="M53.5 25.6l-7.6-4.3 7.6-4.2z"/><path class="st4" d="M31.1 37.1l21.8-12-6.3-3.4-15.9 9z"/><path class="st5" d="M30.4 32.4l3.8 2.2 15.3-8.5-3.9-2.2-15.2 8.5"/><path class="st1" d="M34.3 33.6l-3.9-2.1v-3.6l3.8 2.2z"/><path class="st6" d="M34.2 30.1v3.5l15.3-8.5v-3.5zM30.4 27.9l3.8 2.2 15.3-8.5-3.9-2.2-15.2 8.5"/><path class="st5" d="M30.4 27.9l3.8 2.2 15.3-8.5-3.9-2.2-15.2 8.5"/><path class="st7" d="M34.3 33.6l-3.9-2.1v-3.6l3.8 2.2z"/><path class="st8" d="M35.9 30.8l.1.5 12.4-6.9v-.5z"/><path class="st1" d="M0 12.8v8.5l30.6 17.1v-8.5zM52.6 18.8V25l-21 11.7v-6.2l21-11.7m1-1.7l-23 12.8v8.5l23-12.8v-8.5z"/><path class="st1" d="M23 .3l7 3.9-14.8 8.3-.5.3.5.3 15.3 8.5.1.1.1-.1 15.1-8.4 7.4 4.1v8.2L30.6 38.1.3 21.2V13L23 .3m0-.3L0 12.8v8.5l30.6 17.1 23-12.8V17l-7.7-4.2-15.3 8.5-15.3-8.5 15.3-8.5L23 0z"/><path class="st6" d="M0 12.8L23 0l7.6 4.3-15.3 8.5 15.3 8.5 15.3-8.5 7.6 4.3L30.7 30z"/><path class="st6" d="M23.3 14.1l-.5-.3 8.3-4.6.5.3zM25.2 15.1l-.6-.3 8.4-4.5.5.3zM27.1 16.2l-.5-.3 8.4-4.5.5.2z"/></svg>