<svg id="Layer_1" xmlns="http://www.w3.org/2000/svg" viewBox="0 0 70 70"><style>.st0,.st1{fill:none}.st1{stroke:#000;stroke-width:2;stroke-miterlimit:10}</style><path class="st0" d="M4.5 4.5h61v61h-61v-61z"/><path class="st1" d="M55.3 24.8h-7.1c-1.1-2-2.7-3.7-4.6-5l4.1-4.1-3.6-3.6-5.5 5.5c-1.1-.3-2.4-.4-3.6-.4s-2.4.2-3.6.4l-5.5-5.5-3.6 3.6 4.1 4.1c-1.9 1.3-3.5 3-4.6 5h-7.1v5.1H20c-.1.8-.2 1.7-.2 2.5V35h-5.1v5.1h5.1v2.5c0 .9.1 1.7.2 2.5h-5.3v5.1h7.1c2.6 4.5 7.5 7.6 13.2 7.6s10.6-3.1 13.2-7.6h7.1v-5.1H50c.1-.8.2-1.7.2-2.5v-2.5h5.1V35h-5.1v-2.5c0-.9-.1-1.7-.2-2.5h5.3v-5.2zM40.1 45.2H29.9v-5.1h10.2v5.1zm0-10.2H29.9v-5.1h10.2V35z"/></svg>