<svg id="Layer_1" xmlns="http://www.w3.org/2000/svg" viewBox="0 0 70 70"><style>.st0,.st1{fill:none;stroke:#000;stroke-width:2.437;stroke-linejoin:round;stroke-miterlimit:10}.st1{stroke-linecap:round}</style><path class="st0" d="M9.8 22.6h25V60h-25z"/><path class="st0" d="M16.1 29h12.6v17.6H16.1z"/><path class="st1" d="M16 53.5h3.8M24.8 53.5h3.8"/><path class="st0" d="M9.8 22.6L22.4 9.9H47V29l-3.6 3.6v14.9L34.8 60M60.1 53c-1-4.5-5.4-9.6-5.4-9.6s-4.4 5.1-5.4 9.6c-.1.5-.2 1-.2 1.5 0 3.1 2.5 5.6 5.6 5.6s5.6-2.5 5.6-5.6c-.1-.5-.1-1-.2-1.5z"/></svg>