<svg xmlns="http://www.w3.org/2000/svg" viewBox="0 0 70 70"><path d="M34.9 24.9C40.5 24.9 45 29.4 45 35s-4.5 10.1-10.1 10.1S24.8 40.6 24.8 35s4.5-10.1 10.1-10.1m0-2.1c-6.7 0-12.2 5.5-12.2 12.2s5.5 12.2 12.2 12.2S47.1 41.7 47.1 35s-5.5-12.2-12.2-12.2z"/><path d="M37.1 12l1 5.3c.1.8.7 1.4 1.5 1.7 1.1.3 2.2.8 3.2 1.3.3.2.7.3 1 .3.4 0 .9-.1 1.2-.4l4.5-3.1 3.3 3.3-3.1 4.5c-.5.7-.5 1.5-.1 2.3.5 1 1 2 1.3 3.1.2.8.9 1.4 1.7 1.5l5.3 1v4.6l-5.3 1c-.8.1-1.4.7-1.7 1.5-.3 1.1-.8 2.2-1.3 3.2-.4.7-.3 1.6.1 2.3l3 4.5-3.3 3.3-4.4-3.3c-.4-.3-.8-.4-1.2-.4-.4 0-.7.1-1 .3-1 .5-2.1 1-3.2 1.3-.8.2-1.4.9-1.5 1.7l-1 5.3h-4.6l-1-5.3c-.1-.8-.7-1.4-1.5-1.7-1.1-.3-2.1-.8-3-1.3-.3-.2-.7-.3-1-.3-.4 0-.9.1-1.2.4l-4.4 3-3.4-3.3 3-4.4c.5-.7.5-1.5.1-2.3-.5-1-1-2-1.3-3.1-.2-.8-.9-1.4-1.7-1.5l-5.3-1v-4.6l5.3-1c.8-.1 1.4-.7 1.7-1.5.3-1.1.7-2.1 1.3-3.1.4-.7.3-1.6-.1-2.2l-3.1-4.5 3.3-3.3 4.4 3c.4.3.8.4 1.2.4.4 0 .7-.1 1-.3 1-.5 2-1 3.1-1.3.8-.2 1.3-.9 1.5-1.7l1-5.3h4.7m.7-2.1h-6.1c-.6 0-1.1.5-1.2 1L29.3 17c-1.2.4-2.4.9-3.5 1.4l-5.1-3.5c-.2-.1-.5-.2-.7-.2-.3 0-.7.1-.9.4l-4.3 4.3c-.4.4-.5 1.1-.1 1.6l3.5 5.1c-.6 1.1-1.1 2.3-1.4 3.5l-6.1 1.1c-.6.1-1 .7-1 1.2V38c0 .6.5 1.1 1 1.2l6.1 1.1c.4 1.2.9 2.4 1.5 3.5l-3.5 5c-.3.5-.3 1.2.1 1.6l4.3 4.3c.2.2.6.4.9.4.2 0 .5-.1.7-.2l5-3.5c1.1.6 2.2 1.1 3.4 1.4l1.1 6.1c.1.6.7 1 1.2 1h6.1c.6 0 1.1-.5 1.2-1l1.1-6c1.2-.4 2.4-.9 3.6-1.5l5.1 3.5c.2.1.5.2.7.2.3 0 .7-.1.9-.4l4.3-4.3c.4-.4.5-1.1.1-1.6L51.4 44c.6-1.1 1.1-2.3 1.5-3.6l6.1-1.1c.6-.1 1-.7 1-1.2V32c0-.6-.5-1.1-1-1.2l-6.1-1.1c-.4-1.2-.9-2.4-1.4-3.5l3.5-5.1c.3-.5.3-1.2-.1-1.6L50.5 15c-.2-.2-.6-.4-.9-.4-.2 0-.5.1-.7.2l-5.1 3.5c-1.1-.6-2.3-1.1-3.6-1.5l-1.1-6c-.1-.5-.7-1-1.3-1z"/></svg>